# xmcd
#
# Track frame offsets: 
#        187
#        19587
#        40437
#        67287
#        95562
#        117987
#        146937
#        164187
#        183762
#
# Disc length: 2619 seconds
#
# Revision: 2
# Processed by: cddbd v1.5.2PL0 Copyright (c) Steve Scherf et al.
# Submitted via: ExactAudioCopy v0.99pb4
#
DISCID=890a3909
DTITLE=Willie Mabon - Chicago Blues Session
DYEAR=1979
DGENRE=Blues
TTITLE0=Little Red Rooster
TTITLE1=Lonely Blues
TTITLE2=It's A Shame
TTITLE3=Moanin' Blues
TTITLE4=Monday Woman (A Tribute To Jimmy Reed)
TTITLE5=Louise (A Tribute To Howlin' Wolf)
TTITLE6=Seventh Son (Dedicated To Willie Dixon)
TTITLE7=I'm Mad
TTITLE8=A Change Is Gonna Come
EXTD=
EXTT0=
EXTT1=
EXTT2=
EXTT3=
EXTT4=
EXTT5=
EXTT6=
EXTT7=
EXTT8=
PLAYORDER=
